<?xml version="1.0" encoding="UTF-8" standalone="no"?>
<!DOCTYPE svg PUBLIC "-//W3C//DTD SVG 1.1//EN" "http://www.w3.org/Graphics/SVG/1.1/DTD/svg11.dtd">
<svg width="100%" height="100%" viewBox="0 0 50 50" version="1.1" xmlns="http://www.w3.org/2000/svg" xmlns:xlink="http://www.w3.org/1999/xlink" xml:space="preserve" xmlns:serif="http://www.serif.com/" style="fill-rule:evenodd;clip-rule:evenodd;stroke-linecap:round;stroke-linejoin:round;stroke-miterlimit:1.5;">
    <rect id="wB" x="0" y="0" width="50" height="50" style="fill:none;"/>
    <g id="wB1" serif:id="wB">
        <rect x="0" y="0" width="50" height="50" style="fill:none;"/>
        <g transform="matrix(0.097656,0,0,0.097656,-100,-18.75)">
            <g>
                <g transform="matrix(1.25,0,0,1.25,-320,-48)">
                    <circle cx="1280" cy="384" r="128" style="fill:rgb(47,47,47);stroke:rgb(47,47,47);stroke-width:16.38px;"/>
                </g>
                <g transform="matrix(2,0,0,2,-128,64)">
                    <path d="M704,168L800,272L608,272L704,168Z" style="fill:rgb(47,47,47);stroke:rgb(47,47,47);stroke-width:10.24px;"/>
                </g>
                <g transform="matrix(0.25,0,0,0.25,960,176)">
                    <circle cx="1280" cy="384" r="128" style="fill:rgb(47,47,47);stroke:rgb(47,47,47);stroke-width:81.92px;"/>
                </g>
                <rect x="1088" y="576" width="384" height="64" style="fill:rgb(47,47,47);stroke:rgb(47,47,47);stroke-width:20.48px;"/>
            </g>
            <g>
                <g transform="matrix(1.25,0,0,1.25,-320,-48)">
                    <circle cx="1280" cy="384" r="128" style="fill:rgb(243,243,243);"/>
                </g>
                <g transform="matrix(2,0,0,2,-128,64)">
                    <path d="M704,168L800,272L608,272L704,168Z" style="fill:rgb(243,243,243);"/>
                </g>
                <g transform="matrix(0.25,0,0,0.25,960,176)">
                    <circle cx="1280" cy="384" r="128" style="fill:rgb(243,243,243);"/>
                </g>
                <rect x="1088" y="576" width="384" height="64" style="fill:rgb(243,243,243);"/>
            </g>
            <g transform="matrix(0.083333,-0,-1.75,1.75,2309.333333,-704)">
                <path d="M1472,585.143L1472,640L1088,640L1088,576L1472,585.143Z" style="fill:rgb(47,47,47);"/>
            </g>
            <g>
                <g transform="matrix(2.125,0,0,2,328,104.000001)">
                    <path d="M493.255,212.083C505.257,199.331 512,182.035 512,164C512,152.064 509.043,140.337 503.426,130C509.043,140.337 512,152.064 512,164C512,182.035 505.257,199.331 493.255,212.083Z" style="fill:none;stroke:rgb(47,47,47);stroke-width:4.96px;"/>
                </g>
                <g transform="matrix(2.333333,0,0,2,234.666667,64)">
                    <path d="M400,256L496,256" style="fill:none;stroke:rgb(47,47,47);stroke-width:4.71px;"/>
                </g>
            </g>
        </g>
    </g>
</svg>
