<?xml version="1.0" encoding="UTF-8" standalone="no"?>
<!DOCTYPE svg PUBLIC "-//W3C//DTD SVG 1.1//EN" "http://www.w3.org/Graphics/SVG/1.1/DTD/svg11.dtd">
<svg width="100%" height="100%" viewBox="0 0 50 50" version="1.1" xmlns="http://www.w3.org/2000/svg" xmlns:xlink="http://www.w3.org/1999/xlink" xml:space="preserve" xmlns:serif="http://www.serif.com/" style="fill-rule:evenodd;clip-rule:evenodd;stroke-linecap:round;stroke-linejoin:round;stroke-miterlimit:1.5;">
    <rect id="wK" x="0" y="0" width="50" height="50" style="fill:none;"/>
    <g id="wK1" serif:id="wK">
        <rect x="0" y="0" width="50" height="50" style="fill:none;"/>
        <g transform="matrix(0.097656,0,0,0.097656,-100,-18.75)">
            <g>
                <rect x="1088" y="576" width="384" height="64" style="fill:rgb(47,47,47);stroke:rgb(47,47,47);stroke-width:20.48px;"/>
                <g transform="matrix(2,0,0,2.833333,-640,-165.333333)">
                    <path d="M1056,208C1056,234.492 1025.53,256 988,256L932,256C894.47,256 864,234.492 864,208C864,181.508 894.47,160 932,160L988,160C1025.53,160 1056,181.508 1056,208Z" style="fill:rgb(47,47,47);stroke:rgb(47,47,47);stroke-width:8.35px;"/>
                </g>
                <g transform="matrix(1.2,0,0,1.2,-256,-121.6)">
                    <path d="M1280,448L1440,608L1120,608L1280,448Z" style="fill:rgb(47,47,47);stroke:rgb(47,47,47);stroke-width:17.07px;"/>
                </g>
                <g transform="matrix(5,0,0,5,-2260,-4956)">
                    <circle cx="708" cy="1044" r="8" style="fill:rgb(47,47,47);stroke:rgb(47,47,47);stroke-width:4.1px;"/>
                </g>
            </g>
            <g>
                <rect x="1088" y="576" width="384" height="64" style="fill:rgb(243,243,243);"/>
                <g transform="matrix(2,0,0,2.833333,-640,-165.333333)">
                    <path d="M1056,208C1056,234.492 1025.53,256 988,256L932,256C894.47,256 864,234.492 864,208C864,181.508 894.47,160 932,160L988,160C1025.53,160 1056,181.508 1056,208Z" style="fill:rgb(243,243,243);"/>
                </g>
                <g transform="matrix(1.2,0,0,1.2,-256,-121.6)">
                    <path d="M1280,448L1440,608L1120,608L1280,448Z" style="fill:rgb(243,243,243);"/>
                </g>
                <g transform="matrix(5,0,0,5,-2260,-4956)">
                    <circle cx="708" cy="1044" r="8" style="fill:rgb(243,243,243);"/>
                </g>
            </g>
            <g>
                <g transform="matrix(1.625,0,0,1.529412,608,173.176471)">
                    <path d="M469.889,227.899C495.172,218.122 512,192.587 512,164C512,126.445 483.346,96 448,96C483.346,96 512,126.445 512,164C512,192.587 495.172,218.122 469.889,227.899Z" style="fill:none;stroke:rgb(47,47,47);stroke-width:6.49px;"/>
                </g>
                <g transform="matrix(4.285714,0,0,4,-1732.570933,-3936)">
                    <path d="M688,1116L717.867,1116" style="fill:none;stroke:rgb(47,47,47);stroke-width:2.47px;"/>
                </g>
                <g transform="matrix(2.333333,0,0,2,234.666667,64)">
                    <path d="M400,256L496,256" style="fill:none;stroke:rgb(47,47,47);stroke-width:4.71px;"/>
                </g>
            </g>
            <g transform="matrix(4,0,0,4,-1536,-320)">
                <rect x="692" y="184" width="24" height="4" style="fill:rgb(47,47,47);"/>
                <g transform="matrix(0.166667,0,0,6,586.666671,-930)">
                    <rect x="692" y="184" width="24" height="4" style="fill:rgb(47,47,47);"/>
                </g>
            </g>
        </g>
    </g>
</svg>
